<?xml version="1.0" encoding="UTF-8"?>
<svg width="67.408mm" height="62.908mm" version="1.1" viewBox="0 0 238.85 222.9" xmlns="http://www.w3.org/2000/svg" xmlns:cc="http://creativecommons.org/ns#" xmlns:dc="http://purl.org/dc/elements/1.1/" xmlns:rdf="http://www.w3.org/1999/02/22-rdf-syntax-ns#">
<metadata>
<rdf:RDF>
<cc:Work rdf:about="">
<dc:format>image/svg+xml</dc:format>
<dc:type rdf:resource="http://purl.org/dc/dcmitype/StillImage"/>
<dc:title/>
</cc:Work>
</rdf:RDF>
</metadata>
<g transform="translate(-277.72 -312.34)">
<g transform="translate(1419 398.9)">
<g transform="translate(-29.621 -4)">
<g transform="translate(12.5 7.8093)">
<g transform="translate(-712.86 -503.27)">
<g transform="translate(16.233)" fill="#263238" stroke-width="1px">
<path d="m-402.73 631.47q-0.6125 0.0438-1.3125 0.0875-0.65625 0-1.4 0h-9.3188q-12.819 0-12.819-8.4438v-13.475q0-8.2688 12.6-8.2688h9.7562q12.6 0 12.6 8.2688v13.475q0 5.0312-4.4625 7.0438l3.1062 2.1438q1.3562 0.83125 1.3562 1.7062t-0.7 1.3125q-0.65625 0.48125-1.8812 0.48125-0.30625 0-0.7875-0.13125-0.4375-0.0875-1.05-0.48125l-5.6875-3.7188zm5.3812-21.744q0-4.7688-7.9625-4.7688h-9.5812q-7.9625 0-7.9625 4.7688v13.388q0 4.9438 8.3125 4.9438h8.8812q8.3125 0 8.3125-4.9438v-13.388z"/>
<path d="m-368.06 631.64q-11.288 0-11.288-6.9125v-12.731q0-1.8375 2.3188-1.8375t2.3188 1.8375v12.775q0 3.325 6.475 3.325h8.3125q6.475 0 6.475-3.325v-12.775q0-1.8375 2.3188-1.8375 2.3625 0 2.3625 1.8375v12.731q0 6.9125-11.288 6.9125h-8.0062z"/>
<path d="m-327.28 631.64q-9.3625 0-9.3625-5.8188v-2.4938q0-5.775 9.3625-5.775h18.594v-0.65625q0-3.0625-5.3812-3.0625h-6.1688q-2.1875 0-2.1875-1.7062 0-1.75 2.1875-1.75h6.1688q9.9312 0 9.9312 6.5188v8.575q0 6.1688-9.5375 6.1688h-13.606zm13.344-3.4125q5.25 0 5.25-2.8875v-4.7688h-18.244q-5.1188 0-5.1188 2.6688v2.275q0 2.7125 5.1188 2.7125h12.994z"/>
<path d="m-262.77 626.74q0 4.9-9.975 4.9h-17.062q-2.1875 0-2.1875-1.7062t2.1875-1.7062h17.062q5.3812 0 5.3812-1.4875v-2.45q0-1.4875-5.3812-1.4875h-9.0125q-9.975 0-9.975-4.7688v-2.0562q0-5.6 10.281-5.6h5.9938q2.2312 0 2.2312 1.75 0 0.875-0.6125 1.3125-0.56875 0.39375-1.6188 0.39375h-5.9938q-5.7312 0-5.7312 2.1438v1.925q0 1.7938 5.6875 1.7938h9.0125q9.7125 0 9.7125 4.4625v2.5812z"/>
<path d="m-241.92 631.64q-9.3625 0-9.3625-5.8188v-2.4938q0-5.775 9.3625-5.775h18.594v-0.65625q0-3.0625-5.3812-3.0625h-6.1688q-2.1875 0-2.1875-1.7062 0-1.75 2.1875-1.75h6.1688q9.9312 0 9.9312 6.5188v8.575q0 6.1688-9.5375 6.1688h-13.606zm13.344-3.4125q5.25 0 5.25-2.8875v-4.7688h-18.244q-5.1188 0-5.1188 2.6688v2.275q0 2.7125 5.1188 2.7125h12.994z"/>
<path d="m-205.62 617.34q0-6.9562 11.288-6.9562h3.3688q2.2312 0 2.2312 1.7938t-2.2312 1.7938h-3.5438q-6.475 0-6.475 3.2812v12.775q0 1.8375-2.3188 1.8375t-2.3188-1.8375v-12.688z"/>
</g>
</g>
</g>
</g>
<g transform="matrix(.55595 0 0 .55595 -521.93 -328.66)">
<g transform="matrix(.09527 0 0 .09527 -1695.3 706.63)">
<circle cx="8317.4" cy="-1361.3" r="1485" fill="#fff"/>
<path d="m8560.4-1361.3a242.95 242.95 0 0 1-242.95 242.95 242.95 242.95 0 0 1-242.95-242.95 242.95 242.95 0 0 1 242.95-242.95 242.95 242.95 0 0 1 242.95 242.95z" fill="#263238"/>
<path d="m9395.9-1984a1245.4 1245.4 0 0 0-190.84-249.5l-280.86 162.16c-87.542-74.78-187.03-132.06-293.24-169.95-95.887 97.177-172.06 205.76-226.97 323.85 312.64-21.277 635.53 91.872 935.29 326.07l176.76-102.05a1245.4 1245.4 0 0 0-120.14-290.57z" fill="#1976d2"/>
<path d="m9395.9-738.7a1245.4 1245.4 0 0 0 120.65-290.02l-280.86-162.16c20.99-113.2 20.849-228.01 0.563-338.93-132.1-34.452-264.22-46.128-393.94-34.635 174.75 260.12 238.2 596.32 185.26 973.02l176.76 102.05a1245.4 1245.4 0 0 0 191.57-249.33z" fill="#42a5f5"/>
<path d="m8317.5-115.98a1245.4 1245.4 0 0 0 311.49-40.525v-324.31c108.53-38.424 207.88-95.948 293.8-168.98-36.214-131.63-92.164-251.89-166.98-358.48-137.89 281.39-397.33 504.45-750.03 646.95v204.11a1245.4 1245.4 0 0 0 311.71 41.243z" fill="#1976d2"/>
<path d="m7239-738.58a1245.4 1245.4 0 0 0 190.84 249.5l280.86-162.16c87.542 74.78 187.03 132.06 293.24 169.95 95.887-97.177 172.06-205.76 226.97-323.85-312.64 21.277-635.53-91.873-935.29-326.07l-176.76 102.05a1245.4 1245.4 0 0 0 120.14 290.57z" fill="#42a5f5"/>
<path d="m7238.9-1983.9a1245.4 1245.4 0 0 0-120.65 290.02l280.86 162.16c-20.99 113.2-20.849 228.01-0.563 338.93 132.1 34.452 264.22 46.128 393.94 34.635-174.75-260.12-238.2-596.32-185.26-973.02l-176.76-102.05a1245.4 1245.4 0 0 0-191.57 249.33z" fill="#1976d2"/>
<path d="m8317.4-2606.6a1245.4 1245.4 0 0 0-311.49 40.525l-1e-4 324.31c-108.53 38.424-207.88 95.948-293.8 168.98 36.214 131.63 92.164 251.89 166.98 358.48 137.89-281.39 397.33-504.45 750.03-646.95l1e-4 -204.11a1245.4 1245.4 0 0 0-311.71-41.243z" fill="#42a5f5"/>
</g>
</g>
</g>
</g>
</svg>
